# xmcd
#
# Track frame offsets: 
#        150
#        15290
#        31000
#        44710
#        56989
#        69645
#        81354
#        93257
#        105387
#        116637
#        128310
#        140355
#
# Disc length: 2001 seconds
#
# Revision: 2
# Processed by: cddbd v1.5.2PL0 Copyright (c) Steve Scherf et al.
# Submitted via: ExactAudioCopy v0.95b4
#
DISCID=9607cf0c
DTITLE=Various Artist - The Country Collection - Disc 1
DYEAR=1997
DGENRE=Country
TTITLE0=Jeannie C. Riley - Harper Valey P.T.A.
TTITLE1=Cal Smith - Country Bumpkin
TTITLE2=David Houston - Almost Persuaded
TTITLE3=Jody Miller - Queen Of The House
TTITLE4=Porter Wagoner - The Carroll County Accident
TTITLE5=Sammi Smith - Help Me Make It Through The Night
TTITLE6=Henson Cargill - Skip A Rope
TTITLE7=Wanda Jackson - Right Or Wrong
TTITLE8=Stonewall Jackson - Waterloo
TTITLE9=Stoney Cooper and Wilma Lee - Big Midnight Special
TTITLE10=Skeeter Davis - The End Of The World
TTITLE11=Ned Miller - From A Jack To A King
EXTD=YEAR: 1997 ID3G:   2
EXTT0=
EXTT1=
EXTT2=
EXTT3=
EXTT4=
EXTT5=
EXTT6=
EXTT7=
EXTT8=
EXTT9=
EXTT10=
EXTT11=
PLAYORDER=
